<svg xmlns="http://www.w3.org/2000/svg" width="32" height="32" viewBox="0 0 32 32">
  <circle cx="16" cy="16" r="16" fill="#0a0a15"/>
  <ellipse cx="16" cy="16" rx="12" ry="8" fill="rgba(0,255,180,0.15)" filter="url(#aurora-blur)"/>
  <path d="M6 14 Q10 10, 16 12 Q22 14, 26 11" stroke="url(#aurora-grad1)" stroke-width="2.5" fill="none" stroke-linecap="round" opacity="0.9"/>
  <path d="M5 17 Q12 13, 18 16 Q24 19, 27 15" stroke="url(#aurora-grad2)" stroke-width="2" fill="none" stroke-linecap="round" opacity="0.8"/>
  <path d="M8 20 Q14 17, 20 19 Q26 21, 28 18" stroke="url(#aurora-grad3)" stroke-width="1.5" fill="none" stroke-linecap="round" opacity="0.6"/>
  <path d="M7 12 Q13 9, 19 11 Q25 13, 26 10" stroke="rgba(100,255,220,0.4)" stroke-width="1" fill="none" stroke-linecap="round"/>
  <circle cx="10" cy="9" r="0.5" fill="#fff" opacity="0.9"/>
  <circle cx="22" cy="8" r="0.4" fill="#fff" opacity="0.7"/>
  <circle cx="25" cy="21" r="0.4" fill="#fff" opacity="0.6"/>
  <circle cx="8" cy="22" r="0.3" fill="#fff" opacity="0.5"/>
  <defs>
    <linearGradient id="aurora-grad1" x1="0%" y1="0%" x2="100%" y2="0%">
      <stop offset="0%" stop-color="rgba(0,255,170,0)"/>
      <stop offset="40%" stop-color="rgba(0,255,180,0.9)"/>
      <stop offset="70%" stop-color="rgba(0,220,255,0.7)"/>
      <stop offset="100%" stop-color="rgba(0,200,255,0)"/>
    </linearGradient>
    <linearGradient id="aurora-grad2" x1="0%" y1="0%" x2="100%" y2="0%">
      <stop offset="0%" stop-color="rgba(0,255,220,0)"/>
      <stop offset="50%" stop-color="rgba(80,230,255,0.85)"/>
      <stop offset="100%" stop-color="rgba(150,100,255,0)"/>
    </linearGradient>
    <linearGradient id="aurora-grad3" x1="0%" y1="0%" x2="100%" y2="0%">
      <stop offset="0%" stop-color="rgba(180,120,255,0)"/>
      <stop offset="50%" stop-color="rgba(200,150,255,0.6)"/>
      <stop offset="100%" stop-color="rgba(120,80,255,0)"/>
    </linearGradient>
    <filter id="aurora-blur" x="-50%" y="-50%" width="200%" height="200%">
      <feGaussianBlur stdDeviation="1.5"/>
    </filter>
  </defs>
</svg>
